<svg xmlns="http://www.w3.org/2000/svg" xmlns:xlink="http://www.w3.org/1999/xlink" viewBox="0 0 753.5 936.07"><defs><style>.cls-1{fill:#b93c39;}.cls-2{fill:#e25d40;}.cls-3{fill:#fec57c;}.cls-4{fill:#5b4f3e;}.cls-5{fill:#faa646;}.cls-6{fill:url(#Dégradé_sans_nom_3);}.cls-7{fill:#fff;}.cls-8{fill:#faf0d2;}.cls-9{fill:#494138;}.cls-10{fill:#443c32;}</style><linearGradient id="Dégradé_sans_nom_3" x1="375.31" y1="265.59" x2="375.69" y2="486.85" gradientUnits="userSpaceOnUse"><stop offset="0" stop-color="#fec57c"/><stop offset="0.44" stop-color="#fec67e"/><stop offset="0.61" stop-color="#fec985"/><stop offset="0.73" stop-color="#fdd091"/><stop offset="0.84" stop-color="#fcd8a2"/><stop offset="0.93" stop-color="#fbe3b9"/><stop offset="1" stop-color="#faf0d2"/></linearGradient></defs><title>logo-denis-r-s</title><g id="Calque_3" data-name="Calque 3"><path class="cls-1" d="M873,245V602.5s-13.23,121-88.57,172-268.77,158-268.77,158A77.92,77.92,0,0,1,499.31,939a62.38,62.38,0,0,1-6.43,1.38,58.67,58.67,0,0,1-6.55-1.44,75.48,75.48,0,0,1-15.83-6.41s-27.75-15.63-66.16-37.79c37.24,17.63,117.85-72.59,75.34-111.7-6.66-6.13-16.34-11-29.68-14-102-23-94-99-103-99s-48-18-41-37-1-81-16-74-28,12-56-4,30-22,25-31-21,11-31,3-11-21,15-42,1-27-9-33-33,0-33,0c-45-60,67-30,67-30V334c0-5-16-15-16-15-8-22,16-32,16-32V276c0-43,28-68,28-68s42-32,81-47,70,4,70,4l49,25c-10.6-66,8-135.37,41.83-165.26L555.36,14.5c1.44-.93,2.88-1.78,4.33-2.57,1.09-.35,2.2-.66,3.31-.93,49-12,26,35,26,35s-38,11-45,40,19,5,19,5c66-48,58,22,37,24s-37,44-37,44c39-18,90,23,125,43s37,63,37,63c32.38,48.57,72.9,57.59,104.42,39.62C848.52,293.73,864.32,272.92,873,245Z" transform="translate(-119.5 -4.28)"/><path class="cls-2" d="M496,190l-49-25s-31-19-70-4-81,47-81,47-28,25-28,68v11s-24,10-16,32c0,0,16,10,16,15v88s-112-30-67,30c0,0,23-6,33,0s35,12,9,33-25,34-15,42,26-12,31-3-53,15-25,31,41,11,56,4,23,55,16,74,32,37,41,37,1,76,103,99c13.34,3,23,7.88,29.68,14,42.51,39.11-38.1,129.33-75.34,111.7l-3-1.74c-62-35.76-149.83-87.47-194.82-118.47-74-51-87-172-87-172v-389s6-81,86-111l153-88s38-23,73,0l37,22a55,55,0,0,0,24.38,8.57A56.6,56.6,0,0,0,517.7,36.5l20.13-11.76C504,54.63,485.4,124,496,190Z" transform="translate(-119.5 -4.28)"/><path class="cls-2" d="M873,213.5V245c-8.68,27.92-24.48,48.73-43.58,59.62-31.52,18-72,8.95-104.42-39.62,0,0-2-43-37-63s-86-61-125-43c0,0,16-42,37-44s29-72-37-24c0,0-26,24-19-5s45-40,45-40,23-47-26-35c-1.11.27-2.22.58-3.31.93,34.37-18.61,70,2.57,70,2.57l155.77,88C866.89,132.5,873,213.5,873,213.5Z" transform="translate(-119.5 -4.28)"/></g><g id="Calque_5" data-name="Calque 5"><path class="cls-3" d="M298,448V269s-4-24,26-43l54-31s31-21,56,0l38,21s23,11,48,0l37-22s22-17,53,0l57,32s24,14,25,41,0,171,0,171,4,33-25,47-45,27-45,27L478,582l-79-56-28-15-30-18a99.69,99.69,0,0,0-15.27-8c-6.17-2.39-20.73-9-27.73-37Z" transform="translate(-119.5 -4.28)"/></g><g id="Calque_10" data-name="Calque 10"><path class="cls-4" d="M639.16,327a1.21,1.21,0,0,0-1.2,1.16C636.24,363.92,601,360,596,357s-5,1-5,1V362a10.36,10.36,0,0,1-2.65,7.07c-2.92,3.14-5.82,2.45-8.08.83a10.66,10.66,0,0,1-4.27-8.69V328c0-4.71,2.47-8.35,5.47-11a24.3,24.3,0,0,1,16.24-6l40.21.48A9.45,9.45,0,0,0,641,311c7.5,3,8.5,7,7.62,10.25A8,8,0,0,1,640.8,327Z" transform="translate(-119.5 -4.28)"/><path class="cls-4" d="M350.68,311.39c-7.3,3-8.27,7-7.43,10.25a7.86,7.86,0,0,0,7.63,5.75h1.59a1.19,1.19,0,0,1,1.17,1.17c1.68,35.75,36,31.8,40.86,28.83s4.87,1,4.87,1v3.95a10.47,10.47,0,0,0,2.58,7.07c2.84,3.15,5.66,2.46,7.86.83a10.74,10.74,0,0,0,4.16-8.69V328.39c0-4.71-2.4-8.34-5.32-11a23.37,23.37,0,0,0-15.83-6l-39.14.49A8.78,8.78,0,0,1,350.68,311.39Z" transform="translate(-119.5 -4.28)"/></g><g id="Calque_11" data-name="Calque 11"><path class="cls-5" d="M625,329.5a16.85,16.85,0,0,1-.16,2.37,18,18,0,0,1-35.68,0,16.85,16.85,0,0,1-.16-2.37,17.88,17.88,0,0,1,.38-3.68,3.3,3.3,0,0,1,1.82-2.32,5.52,5.52,0,0,1,2.3-.5,5.44,5.44,0,0,1,3.38,1.16,3.13,3.13,0,0,1,1.14,2.7c0,.21,0,.43,0,.64a9.36,9.36,0,0,0,.55,3.18A9.5,9.5,0,0,0,617,327.5a10.14,10.14,0,0,0-.11-1.46,2.34,2.34,0,0,1,1.24-2.51,5.52,5.52,0,0,1,2.37-.53,5.38,5.38,0,0,1,2.85.8,2.64,2.64,0,0,1,1.2,1.69A17.67,17.67,0,0,1,625,329.5Z" transform="translate(-119.5 -4.28)"/><path class="cls-5" d="M401,329.5a16.85,16.85,0,0,1-.16,2.37,18,18,0,0,1-35.68,0,16.85,16.85,0,0,1-.16-2.37,17.88,17.88,0,0,1,.38-3.68,3.3,3.3,0,0,1,1.82-2.32,5.52,5.52,0,0,1,2.3-.5,5.44,5.44,0,0,1,3.38,1.16,3.13,3.13,0,0,1,1.14,2.7c0,.21,0,.43,0,.64a9.36,9.36,0,0,0,.55,3.18A9.5,9.5,0,0,0,393,327.5a10.14,10.14,0,0,0-.11-1.46,2.34,2.34,0,0,1,1.24-2.51,5.52,5.52,0,0,1,2.37-.53,5.38,5.38,0,0,1,2.85.8,2.64,2.64,0,0,1,1.2,1.69A17.67,17.67,0,0,1,401,329.5Z" transform="translate(-119.5 -4.28)"/></g><g id="Calque_12" data-name="Calque 12"><rect class="cls-6" x="294.5" y="265.72" width="162" height="221" rx="5.91"/></g><g id="Calque_9" data-name="Calque 9"><path class="cls-3" d="M404.34,894.71a19.48,19.48,0,0,1-3-1.74Z" transform="translate(-119.5 -4.28)"/></g><g id="Calque_8" data-name="Calque 8"><rect class="cls-3" x="260.5" y="555.72" width="231" height="151" rx="45.5"/></g><g id="Calque_13" data-name="Calque 13"><rect class="cls-4" x="321.5" y="611.72" width="118" height="66"/><rect class="cls-7" x="321.5" y="658.72" width="118" height="18"/><rect class="cls-7" x="322.5" y="618.72" width="118" height="19"/></g><g id="Calque_6" data-name="Calque 6"><path class="cls-8" d="M643.76,633c-15.18,12-47.57,27-47.57,27s-14.31,7.54-41.08-1.17c-.8-.26-1.61-.54-2.43-.83l-52.62-31L495,624l-5,3-52,31c-.81.29-1.61.57-2.4.83C409.14,667.54,395,660,395,660s-32-15-47-27-13-32-13-32,1-34,0-49,17-31,17-31l58-30,85,6,86-6,58.7,30s18.21,16,17.2,31,0,49,0,49S658.93,621,643.76,633Z" transform="translate(-119.5 -4.28)"/></g><g id="Calque_7" data-name="Calque 7"><path class="cls-9" d="M577,500l-22,14.49-38.93,25.64-13.91,9.16a13,13,0,0,1-14.31,0l-13-8.58L436,515l-22.65-15c-10-23,14.94-27,14.94-27H562S587,477,577,500Z" transform="translate(-119.5 -4.28)"/></g><g id="Calque_15" data-name="Calque 15"><path class="cls-10" d="M776.28,295.78a11.3,11.3,0,0,0-5.11-7.7c-42.4-27-163.33-28.21-212.78-8.15-.34.13-.69.25-1,.36a310.82,310.82,0,0,1-44.74,9.12A153.66,153.66,0,0,1,496,290.54v-.13c-3.25,0-6.61-.19-10-.46-23-1.86-47.53-8.67-51.46-9.79-.35-.11-.7-.23-1-.36C384,259.74,262.8,261,220.32,288a11.34,11.34,0,0,0-5.12,7.7c-1.37,8.14-3.94,24.38-3.2,27.35.85,3.42,20,20.72,24.89,37.54a28.39,28.39,0,0,1,.79,10.59C235.88,390.83,260,431.65,281,433a52.59,52.59,0,0,1,5.3.68c22.38,3.74,57.84,13.42,104.73-.65,50-15,60-24,74-80,4.34-17.36,12.24-26.64,21-30.36a24.94,24.94,0,0,1,10-2v.13a25,25,0,0,1,16.61,6.07c6,5,11.13,13.44,14.33,26.26,14,56,24,65,73.87,80,46.8,14.07,82.2,4.39,104.54.65a52,52,0,0,1,5.29-.68c21-1.32,45-42.14,43.21-61.84a28.59,28.59,0,0,1,.78-10.59c4.92-16.82,24-34.12,24.85-37.54C780.22,320.16,777.65,303.92,776.28,295.78ZM418,410c-13.34,7.62-69,23-128,9-6.94-2-15-8.23-19.43-13.92-24.12-30.87-14-75.51-10-89.63a46.19,46.19,0,0,1,4.3-10.29C273.67,290,285,291,296,289c12-1,86-15,134,15S432,402,418,410Zm302.35-4.92C716,410.77,708.1,417,701.28,419c-57.9,14-112.52-1.38-125.61-9-13.74-8-58.88-76-11.78-106s119.73-16,131.5-15c10.81,2,21.92,1,30.52,16.16a46.9,46.9,0,0,1,4.22,10.29C734.12,329.57,744,374.21,720.35,405.08Z" transform="translate(-119.5 -4.28)"/></g><g id="Calque_14" data-name="Calque 14"><path class="cls-10" d="M475,513.5v25a19.82,19.82,0,0,1-.12,2.19L436,515V513.5a19.5,19.5,0,0,1,39,0Z" transform="translate(-119.5 -4.28)"/><path class="cls-10" d="M555,513.5v1l-38.93,25.64c-.05-.53-.07-1.08-.07-1.63v-25a19.5,19.5,0,0,1,39,0Z" transform="translate(-119.5 -4.28)"/></g></svg>